<svg fill="white" xmlns="http://www.w3.org/2000/svg" viewBox="0 0 976.06 140.7"><g id="Layer_2" data-name="Layer 2"><g id="Layer_1-2" data-name="Layer 1"><path d="M52.59,16.23H0V2.84H120.51V16.23H68V137.85H52.59Z"/><path d="M268.81,126.75,366.59,16H273.4V2.84H386.88v11.6L289.7,124.72H391.13l-2.52,13.13H268.81Z"/><path d="M426.48,2.84V79.69c0,37.26,22.4,47.72,44,47.72,26.75,0,42.52-12.84,42.52-47.72V2.84h15.2V79.11c0,44.74-22.9,61.59-58.34,61.59s-58.57-17.79-58.57-59.91V2.84Z"/><path d="M688.06,99.28c-8.1,23-24.51,41.42-61.91,41.42-43.88,0-68.54-30.82-68.54-70S585,0,626.93,0c38.3,0,56,20.42,61.64,42.47H672.83c-6.7-16-18.56-29.21-46.12-29.21-32.61,0-53,23.93-53,56.89,0,32.23,20.45,57.32,53.14,57.32,27.18,0,37.85-11.89,45.77-28.19Z"/><path d="M717.17,2.84h15.2V71.46c21-17.5,58.19-47.41,83.75-68.62h20.39L766.34,60.6l74.38,77.25H820.36L754.53,68.79,732.37,86.26v51.59h-15.2Z"/><path d="M872.88,94l-19,43.81h-16L897,2.84h17.8l61.3,135H959.45L939.67,94ZM934.3,80.63c-17.61-39.06-25.84-57.25-28.91-66.08h-.19c-2.71,8.48-12.53,32.34-27.07,66.08Z"/><line x1="141.35" y1="132" x2="247.03" y2="132"/><rect x="141.35" y="126" width="105.68" height="12"/><line x1="141.83" y1="70.15" x2="239.03" y2="70.15"/><rect x="141.83" y="64.24" width="97.2" height="11.82"/><line x1="141.83" y1="10.22" x2="247.51" y2="10.22"/><rect x="141.83" y="3.22" width="105.68" height="14"/></g></g></svg>
